<svg width="23" height="23" viewBox="0 0 23 23" fill="none" xmlns="http://www.w3.org/2000/svg">
<g clip-path="url(#clip0_47_14)">
<path d="M11.5 0C9.22552 0 7.00211 0.674463 5.11095 1.9381C3.21978 3.20174 1.7458 4.99779 0.875391 7.09914C0.00498279 9.20049 -0.222756 11.5128 0.220974 13.7435C0.664704 15.9743 1.75997 18.0234 3.36828 19.6317C4.97658 21.24 7.02569 22.3353 9.25647 22.779C11.4872 23.2228 13.7995 22.995 15.9009 22.1246C18.0022 21.2542 19.7983 19.7802 21.0619 17.8891C22.3255 15.9979 23 13.7745 23 11.5C22.9967 8.45102 21.784 5.52787 19.6281 3.37191C17.4721 1.21596 14.549 0.0032977 11.5 0ZM11.5 21.0833C9.6046 21.0833 7.75176 20.5213 6.17579 19.4683C4.59982 18.4152 3.3715 16.9185 2.64616 15.1674C1.92082 13.4163 1.73104 11.4894 2.10081 9.63039C2.47059 7.7714 3.38331 6.06381 4.72356 4.72356C6.06382 3.38331 7.77141 2.47058 9.63039 2.10081C11.4894 1.73103 13.4163 1.92081 15.1674 2.64615C16.9185 3.37149 18.4152 4.59981 19.4683 6.17579C20.5213 7.75176 21.0833 9.6046 21.0833 11.5C21.0805 14.0408 20.07 16.4767 18.2734 18.2734C16.4767 20.07 14.0408 21.0805 11.5 21.0833ZM16.2917 11.5C16.2917 11.7542 16.1907 11.9979 16.011 12.1776C15.8313 12.3574 15.5875 12.4583 15.3333 12.4583H12.4583V15.3333C12.4583 15.5875 12.3574 15.8313 12.1776 16.011C11.9979 16.1907 11.7542 16.2917 11.5 16.2917C11.2458 16.2917 11.0021 16.1907 10.8224 16.011C10.6426 15.8313 10.5417 15.5875 10.5417 15.3333V12.4583H7.66667C7.41251 12.4583 7.16875 12.3574 6.98903 12.1776C6.80931 11.9979 6.70834 11.7542 6.70834 11.5C6.70834 11.2458 6.80931 11.0021 6.98903 10.8224C7.16875 10.6426 7.41251 10.5417 7.66667 10.5417H10.5417V7.66667C10.5417 7.4125 10.6426 7.16875 10.8224 6.98902C11.0021 6.8093 11.2458 6.70833 11.5 6.70833C11.7542 6.70833 11.9979 6.8093 12.1776 6.98902C12.3574 7.16875 12.4583 7.4125 12.4583 7.66667V10.5417H15.3333C15.5875 10.5417 15.8313 10.6426 16.011 10.8224C16.1907 11.0021 16.2917 11.2458 16.2917 11.5Z" fill="#575757"/>
</g>
<defs>
<clipPath id="clip0_47_14">
<rect width="23" height="23" fill="white"/>
</clipPath>
</defs>
</svg>
