<svg width="28" height="28" viewBox="0 0 28 28" fill="none" xmlns="http://www.w3.org/2000/svg">
<g clip-path="url(#clip0_2_464)">
<path d="M28 4.66667C28 2.093 25.907 0 23.3333 0C20.7597 0 18.6667 2.093 18.6667 4.66667C18.6667 6.83667 20.1565 8.666 22.1667 9.18517V11.6667C22.1667 12.3095 21.6428 12.8333 21 12.8333H7C6.5905 12.8333 6.1985 12.9045 5.83333 13.0328V9.18517C7.8435 8.666 9.33333 6.83667 9.33333 4.66667C9.33333 2.093 7.24033 0 4.66667 0C2.093 0 0 2.093 0 4.66667C0 6.83667 1.48983 8.666 3.5 9.18517V18.8137C1.48983 19.3328 0 21.1622 0 23.3322C0 25.9058 2.093 27.9988 4.66667 27.9988C7.24033 27.9988 9.33333 25.9058 9.33333 23.3322C9.33333 21.1622 7.8435 19.3328 5.83333 18.8137V16.3322C5.83333 15.6893 6.35717 15.1655 7 15.1655H21C22.9297 15.1655 24.5 13.5952 24.5 11.6655V9.184C26.5102 8.66483 28 6.83667 28 4.66667ZM2.33333 4.66667C2.33333 3.37983 3.37983 2.33333 4.66667 2.33333C5.9535 2.33333 7 3.37983 7 4.66667C7 5.9535 5.9535 7 4.66667 7C3.37983 7 2.33333 5.9535 2.33333 4.66667ZM7 23.3333C7 24.6202 5.9535 25.6667 4.66667 25.6667C3.37983 25.6667 2.33333 24.6202 2.33333 23.3333C2.33333 22.0465 3.37983 21 4.66667 21C5.9535 21 7 22.0465 7 23.3333ZM23.3333 7C22.0465 7 21 5.9535 21 4.66667C21 3.37983 22.0465 2.33333 23.3333 2.33333C24.6202 2.33333 25.6667 3.37983 25.6667 4.66667C25.6667 5.9535 24.6202 7 23.3333 7Z" fill="#575757"/>
</g>
<defs>
<clipPath id="clip0_2_464">
<rect width="28" height="28" fill="white"/>
</clipPath>
</defs>
</svg>
