<svg width="28" height="28" viewBox="0 0 28 28" fill="none" xmlns="http://www.w3.org/2000/svg">
<g clip-path="url(#clip0_47_16)">
<path d="M26.8333 12.8333H22.0827C21.5145 8.88065 18.1067 5.83331 14 5.83331C9.89333 5.83331 6.48433 8.88065 5.91733 12.8333H1.16667C0.522667 12.8333 0 13.356 0 14C0 14.644 0.522667 15.1666 1.16667 15.1666H5.91733C6.4855 19.1193 9.89333 22.1666 14 22.1666C18.1067 22.1666 21.5145 19.1193 22.0827 15.1666H26.8333C27.4785 15.1666 28 14.644 28 14C28 13.356 27.4785 12.8333 26.8333 12.8333ZM14 19.8333C10.7835 19.8333 8.16667 17.2165 8.16667 14C8.16667 10.7835 10.7835 8.16665 14 8.16665C17.2165 8.16665 19.8333 10.7835 19.8333 14C19.8333 17.2165 17.2165 19.8333 14 19.8333Z" fill="#575757"/>
</g>
<defs>
<clipPath id="clip0_47_16">
<rect width="28" height="28" fill="white"/>
</clipPath>
</defs>
</svg>
