<svg width="19" height="19" viewBox="0 0 19 19" fill="none" xmlns="http://www.w3.org/2000/svg">
<g clip-path="url(#clip0_74_15)">
<path d="M16.625 3.16667H14.1708C13.9871 2.2732 13.501 1.4704 12.7943 0.893568C12.0877 0.316738 11.2038 0.0011515 10.2917 0L8.70834 0C7.79618 0.0011515 6.9123 0.316738 6.20569 0.893568C5.49907 1.4704 5.01292 2.2732 4.82918 3.16667H2.37501C2.16505 3.16667 1.96368 3.25007 1.81522 3.39854C1.66675 3.54701 1.58334 3.74837 1.58334 3.95833C1.58334 4.1683 1.66675 4.36966 1.81522 4.51813C1.96368 4.66659 2.16505 4.75 2.37501 4.75H3.16668V15.0417C3.16793 16.0911 3.58537 17.0972 4.32743 17.8392C5.06949 18.5813 6.07558 18.9987 7.12501 19H11.875C12.9244 18.9987 13.9305 18.5813 14.6726 17.8392C15.4146 17.0972 15.8321 16.0911 15.8333 15.0417V4.75H16.625C16.835 4.75 17.0363 4.66659 17.1848 4.51813C17.3333 4.36966 17.4167 4.1683 17.4167 3.95833C17.4167 3.74837 17.3333 3.54701 17.1848 3.39854C17.0363 3.25007 16.835 3.16667 16.625 3.16667ZM8.70834 1.58333H10.2917C10.7827 1.58393 11.2616 1.73642 11.6625 2.01989C12.0635 2.30336 12.367 2.70393 12.5313 3.16667H6.46872C6.63305 2.70393 6.93651 2.30336 7.33748 2.01989C7.73845 1.73642 8.21729 1.58393 8.70834 1.58333ZM14.25 15.0417C14.25 15.6716 13.9998 16.2756 13.5544 16.721C13.109 17.1664 12.5049 17.4167 11.875 17.4167H7.12501C6.49512 17.4167 5.89103 17.1664 5.44563 16.721C5.00023 16.2756 4.75001 15.6716 4.75001 15.0417V4.75H14.25V15.0417Z" fill="white"/>
<path d="M7.91667 14.25C8.12663 14.25 8.32799 14.1666 8.47646 14.0181C8.62493 13.8696 8.70833 13.6683 8.70833 13.4583V8.70829C8.70833 8.49833 8.62493 8.29697 8.47646 8.1485C8.32799 8.00003 8.12663 7.91663 7.91667 7.91663C7.7067 7.91663 7.50534 8.00003 7.35687 8.1485C7.20841 8.29697 7.125 8.49833 7.125 8.70829V13.4583C7.125 13.6683 7.20841 13.8696 7.35687 14.0181C7.50534 14.1666 7.7067 14.25 7.91667 14.25Z" fill="white"/>
<path d="M11.0833 14.25C11.2933 14.25 11.4946 14.1666 11.6431 14.0181C11.7916 13.8696 11.875 13.6683 11.875 13.4583V8.70829C11.875 8.49833 11.7916 8.29697 11.6431 8.1485C11.4946 8.00003 11.2933 7.91663 11.0833 7.91663C10.8734 7.91663 10.672 8.00003 10.5235 8.1485C10.3751 8.29697 10.2917 8.49833 10.2917 8.70829V13.4583C10.2917 13.6683 10.3751 13.8696 10.5235 14.0181C10.672 14.1666 10.8734 14.25 11.0833 14.25Z" fill="white"/>
</g>
<defs>
<clipPath id="clip0_74_15">
<rect width="19" height="19" fill="white"/>
</clipPath>
</defs>
</svg>
