<svg width="22" height="27" viewBox="0 0 22 27" fill="none" xmlns="http://www.w3.org/2000/svg">
<g clip-path="url(#clip0_48_261)">
<path d="M20.9486 1.29145C20.3254 0.527794 19.4807 0.098877 18.6001 0.098877C17.7194 0.098877 16.8748 0.527794 16.2516 1.29145L1.34293 19.5884C0.915994 20.1095 0.577479 20.7292 0.34697 21.4118C0.116462 22.0945 -0.00146481 22.8264 1.37328e-05 23.5653V25.8749C1.37328e-05 26.1733 0.0965909 26.4595 0.268499 26.6704C0.440408 26.8814 0.673565 26.9999 0.91668 26.9999H2.7986C3.40063 27.002 3.99702 26.8575 4.55324 26.5748C5.10946 26.2921 5.61446 25.8768 6.03901 25.3529L20.9486 7.05482C21.5706 6.29004 21.9199 5.25366 21.9199 4.17314C21.9199 3.09261 21.5706 2.05623 20.9486 1.29145ZM4.74285 23.7622C4.22585 24.3925 3.52731 24.7474 2.7986 24.7499H1.83335V23.5653C1.83242 23.122 1.90316 22.6828 2.04146 22.2732C2.17977 21.8636 2.3829 21.4918 2.6391 21.1792L13.9535 7.29332L16.0618 9.88082L4.74285 23.7622ZM19.6515 5.46407L17.3543 8.28445L15.246 5.70257L17.5441 2.8822C17.6825 2.71267 17.8468 2.57826 18.0276 2.48666C18.2083 2.39505 18.402 2.34804 18.5976 2.3483C18.7932 2.34856 18.9868 2.39609 19.1674 2.48818C19.348 2.58027 19.512 2.71511 19.6501 2.88501C19.7883 3.05491 19.8978 3.25653 19.9724 3.47837C20.0471 3.70021 20.0854 3.93793 20.0852 4.17794C20.085 4.41795 20.0462 4.65556 19.9712 4.8772C19.8962 5.09884 19.7863 5.30017 19.6478 5.4697L19.6515 5.46407Z" fill="white" fill-opacity="0.6"/>
</g>
<defs>
<clipPath id="clip0_48_261">
<rect width="22" height="27" fill="white"/>
</clipPath>
</defs>
</svg>
