<svg width="33" height="33" viewBox="0 0 33 33" fill="none" xmlns="http://www.w3.org/2000/svg">
<g clip-path="url(#clip0_44_13)">
<path d="M16.5522 0.0275269C7.45387 0.0275269 0.0522461 7.42778 0.0522461 16.5275C0.0522461 25.6273 7.45387 33.0275 16.5522 33.0275C25.6506 33.0275 33.0522 25.6259 33.0522 16.5275C33.0522 7.42915 25.6506 0.0275269 16.5522 0.0275269ZM16.5522 30.2775C8.9705 30.2775 2.80225 24.1093 2.80225 16.5275C2.80225 8.94578 8.9705 2.77753 16.5522 2.77753C24.134 2.77753 30.3022 8.94578 30.3022 16.5275C30.3022 24.1093 24.134 30.2775 16.5522 30.2775ZM23.1041 10.8832L18.3507 16.5275L23.1041 22.1719C23.5936 22.7535 23.5194 23.6212 22.9391 24.1093C22.6806 24.3265 22.3657 24.4324 22.0536 24.4324C21.6617 24.4324 21.2726 24.266 21.0004 23.9443L16.5522 18.6615L12.1041 23.9443C11.8332 24.266 11.4441 24.4324 11.0509 24.4324C10.7387 24.4324 10.4239 24.3265 10.1654 24.1093C9.58512 23.6212 9.5095 22.7535 10.0004 22.1719L14.7537 16.5275L10.0004 10.8832C9.51087 10.3015 9.58512 9.4339 10.1654 8.94578C10.747 8.45353 11.616 8.5319 12.1027 9.11078L16.5509 14.3935L20.999 9.11078C21.4857 8.53328 22.3547 8.45353 22.9364 8.94578C23.5166 9.4339 23.5922 10.3015 23.1014 10.8832H23.1041Z" fill="#575757"/>
</g>
<defs>
<clipPath id="clip0_44_13">
<rect width="61" height="61" fill="white"/>
</clipPath>
</defs>
</svg>
