<svg width="35" height="35" viewBox="0 0 35 35" fill="none" xmlns="http://www.w3.org/2000/svg">
<g clip-path="url(#clip0_48_12)">
<path d="M17.5 0C14.0388 0 10.6554 1.02636 7.77753 2.94928C4.89967 4.87221 2.65665 7.60533 1.33212 10.803C0.00758251 14.0007 -0.338976 17.5194 0.336265 20.9141C1.01151 24.3087 2.67822 27.427 5.12564 29.8744C7.57306 32.3218 10.6913 33.9885 14.0859 34.6637C17.4806 35.339 20.9993 34.9924 24.197 33.6679C27.3947 32.3434 30.1278 30.1003 32.0507 27.2225C33.9736 24.3446 35 20.9612 35 17.5C34.995 12.8603 33.1496 8.41197 29.8688 5.13117C26.588 1.85037 22.1398 0.00501824 17.5 0ZM17.5 32.0833C14.6157 32.0833 11.7962 31.228 9.39794 29.6256C6.99972 28.0232 5.13054 25.7456 4.02676 23.0808C2.92299 20.416 2.63419 17.4838 3.19689 14.6549C3.75959 11.826 5.14852 9.22754 7.18803 7.18803C9.22755 5.14851 11.8261 3.75958 14.6549 3.19688C17.4838 2.63418 20.4161 2.92298 23.0808 4.02676C25.7456 5.13054 28.0232 6.99972 29.6256 9.39793C31.228 11.7962 32.0833 14.6157 32.0833 17.5C32.0791 21.3664 30.5413 25.0733 27.8073 27.8073C25.0733 30.5413 21.3664 32.0791 17.5 32.0833Z" fill="#575757"/>
<path d="M18.5456 7.38354C17.7047 7.23031 16.8403 7.26379 16.0137 7.4816C15.1871 7.69941 14.4184 8.09623 13.7622 8.64399C13.1059 9.19174 12.578 9.87703 12.2159 10.6514C11.8538 11.4257 11.6663 12.2702 11.6667 13.125C11.6667 13.5118 11.8203 13.8827 12.0938 14.1562C12.3673 14.4297 12.7382 14.5833 13.125 14.5833C13.5118 14.5833 13.8827 14.4297 14.1562 14.1562C14.4297 13.8827 14.5834 13.5118 14.5834 13.125C14.583 12.6959 14.6773 12.2721 14.8596 11.8836C15.0418 11.4952 15.3075 11.1517 15.6378 10.8778C15.968 10.6038 16.3546 10.4061 16.77 10.2987C17.1854 10.1913 17.6194 10.1769 18.0411 10.2565C18.6172 10.3683 19.1469 10.6493 19.5625 11.0636C19.9781 11.4779 20.2608 12.0068 20.3744 12.5825C20.4892 13.1868 20.4099 13.812 20.148 14.3686C19.8861 14.9252 19.4549 15.3847 18.9161 15.6815C18.0238 16.1984 17.2865 16.9451 16.781 17.8439C16.2754 18.7426 16.0201 19.7605 16.0417 20.7915V21.875C16.0417 22.2618 16.1953 22.6327 16.4688 22.9062C16.7423 23.1797 17.1132 23.3333 17.5 23.3333C17.8868 23.3333 18.2577 23.1797 18.5312 22.9062C18.8047 22.6327 18.9584 22.2618 18.9584 21.875V20.7915C18.9401 20.284 19.0558 19.7806 19.2939 19.3321C19.532 18.8836 19.884 18.5057 20.3146 18.2365C21.3712 17.6561 22.222 16.7627 22.7501 15.6791C23.2783 14.5955 23.4577 13.3749 23.2638 12.1851C23.0698 10.9954 22.5121 9.89493 21.6672 9.0351C20.8223 8.17527 19.7318 7.5983 18.5456 7.38354Z" fill="#575757"/>
<path d="M18.9584 26.25C18.9584 25.4445 18.3054 24.7916 17.5 24.7916C16.6946 24.7916 16.0417 25.4445 16.0417 26.25C16.0417 27.0554 16.6946 27.7083 17.5 27.7083C18.3054 27.7083 18.9584 27.0554 18.9584 26.25Z" fill="#575757"/>
</g>
<defs>
<clipPath id="clip0_48_12">
<rect width="35" height="35" fill="white"/>
</clipPath>
</defs>
</svg>
