<svg width="28" height="28" viewBox="0 0 28 28" fill="none" xmlns="http://www.w3.org/2000/svg">
<g clip-path="url(#clip0_2_480)">
<path d="M23.3333 9.33333C21.1622 9.33333 19.334 10.8232 18.8148 12.8333H9.33333C7.40367 12.8333 5.83333 11.263 5.83333 9.33333V9.18517C7.84467 8.666 9.33333 6.83667 9.33333 4.66667C9.33333 2.093 7.24033 0 4.66667 0C2.093 0 0 2.093 0 4.66667C0 6.83667 1.48867 8.666 3.5 9.18517V18.8137C1.48867 19.3328 0 21.1622 0 23.3322C0 25.9058 2.093 27.9988 4.66667 27.9988C7.24033 27.9988 9.33333 25.9058 9.33333 23.3322C9.33333 21.1622 7.84467 19.3328 5.83333 18.8137V13.9965C6.80867 14.7303 8.02083 15.1655 9.33333 15.1655H18.8148C19.334 17.1757 21.1633 18.6655 23.3333 18.6655C25.907 18.6655 28 16.5725 28 13.9988C28 11.4252 25.907 9.33333 23.3333 9.33333ZM2.33333 4.66667C2.33333 3.37983 3.37983 2.33333 4.66667 2.33333C5.9535 2.33333 7 3.37983 7 4.66667C7 5.9535 5.9535 7 4.66667 7C3.37983 7 2.33333 5.9535 2.33333 4.66667ZM7 23.3333C7 24.6202 5.9535 25.6667 4.66667 25.6667C3.37983 25.6667 2.33333 24.6202 2.33333 23.3333C2.33333 22.0465 3.37983 21 4.66667 21C5.9535 21 7 22.0465 7 23.3333ZM23.3333 16.3333C22.0465 16.3333 21 15.2868 21 14C21 12.7132 22.0465 11.6667 23.3333 11.6667C24.6202 11.6667 25.6667 12.7132 25.6667 14C25.6667 15.2868 24.6202 16.3333 23.3333 16.3333Z" fill="#575757"/>
</g>
<defs>
<clipPath id="clip0_2_480">
<rect width="28" height="28" fill="white"/>
</clipPath>
</defs>
</svg>
