<svg width="28" height="28" viewBox="0 0 28 28" fill="none" xmlns="http://www.w3.org/2000/svg">
<g clip-path="url(#clip0_2_468)">
<path d="M24.5 14H21C19.7132 14 18.6667 15.0465 18.6667 16.3333C18.6667 17.6202 17.6202 18.6667 16.3333 18.6667H11.6667C10.3798 18.6667 9.33333 17.6202 9.33333 16.3333C9.33333 15.0465 8.28683 14 7 14H3.5C1.57033 14 0 15.5703 0 17.5V22.1667C0 25.3832 2.61683 28 5.83333 28H22.1667C25.3832 28 28 25.3832 28 22.1667V17.5C28 15.5703 26.4297 14 24.5 14ZM25.6667 22.1667C25.6667 24.0963 24.0963 25.6667 22.1667 25.6667H5.83333C3.90367 25.6667 2.33333 24.0963 2.33333 22.1667V17.5C2.33333 16.856 2.856 16.3333 3.5 16.3333L7 16.331V16.3333C7 18.907 9.093 21 11.6667 21H16.3333C18.907 21 21 18.907 21 16.3333H24.5C25.144 16.3333 25.6667 16.856 25.6667 17.5V22.1667ZM8.5085 6.17517C8.05233 5.719 8.05233 4.98167 8.5085 4.5255L12.3503 0.683667C12.8007 0.233333 13.3922 0.007 13.9837 0.0035L14 0L14.0163 0.0035C14.609 0.007 15.1993 0.233333 15.6497 0.683667L19.4915 4.5255C19.9477 4.98167 19.9477 5.719 19.4915 6.17517C19.264 6.40267 18.9653 6.517 18.6667 6.517C18.368 6.517 18.0693 6.40267 17.8418 6.17517L15.1667 3.5V11.6667C15.1667 12.3118 14.6452 12.8333 14 12.8333C13.3548 12.8333 12.8333 12.3118 12.8333 11.6667V3.5L10.1582 6.17517C9.702 6.63133 8.96467 6.63133 8.5085 6.17517Z" fill="#575757"/>
</g>
<defs>
<clipPath id="clip0_2_468">
<rect width="28" height="28" fill="white"/>
</clipPath>
</defs>
</svg>
