<svg width="28" height="28" viewBox="0 0 28 28" fill="none" xmlns="http://www.w3.org/2000/svg">
<g clip-path="url(#clip0_2_458)">
<path d="M20.9697 8.337C20.5823 8.26 20.2662 8.0185 20.104 7.67317C18.2933 3.857 14.1038 1.72317 9.91317 2.4955C6.09583 3.1955 3.10333 6.24283 2.46517 10.08C2.27617 11.2128 2.29017 12.3468 2.50367 13.4517C2.57367 13.8122 2.4185 14.2135 2.1 14.5028C0.764166 15.7173 -0.0011673 17.4475 -0.0011673 19.2512C-0.0011673 22.7885 2.877 25.6678 6.4155 25.6678H19.2488C24.0742 25.6678 27.9988 21.7432 27.9988 16.9178C27.9988 12.7587 25.0425 9.15017 20.9685 8.33817L20.9697 8.337ZM19.25 23.3333H6.41667C4.165 23.3333 2.33333 21.5017 2.33333 19.25C2.33333 18.1032 2.821 17.0007 3.67033 16.2283C4.58733 15.3942 5.01783 14.1598 4.79383 13.0048C4.63283 12.1742 4.6235 11.319 4.76583 10.4603C5.236 7.63467 7.525 5.3025 10.332 4.788C10.7812 4.70633 11.228 4.66667 11.6678 4.66667C14.3652 4.66667 16.8082 6.1705 17.9935 8.673C18.4765 9.69033 19.3935 10.4008 20.5112 10.6248C23.4967 11.221 25.6643 13.8658 25.6643 16.9178C25.6643 20.4552 22.7862 23.3345 19.2477 23.3345L19.25 23.3333ZM17.6412 15.5085C18.0973 15.9647 18.0973 16.702 17.6412 17.1582L14.483 20.3163C14.0315 20.7678 13.4377 20.9953 12.8438 20.9977L12.8333 21L12.8228 20.9977C12.229 20.9953 11.6352 20.7678 11.1837 20.3163L8.0255 17.1582C7.56933 16.702 7.56933 15.9647 8.0255 15.5085C8.48167 15.0523 9.219 15.0523 9.67517 15.5085L11.6667 17.5V11.6667C11.6667 11.0215 12.1893 10.5 12.8333 10.5C13.4773 10.5 14 11.0215 14 11.6667V17.5L15.9915 15.5085C16.4477 15.0523 17.185 15.0523 17.6412 15.5085Z" fill="#575757"/>
</g>
<defs>
<clipPath id="clip0_2_458">
<rect width="28" height="28" fill="white"/>
</clipPath>
</defs>
</svg>
