<svg width="28" height="28" viewBox="0 0 28 28" fill="none" xmlns="http://www.w3.org/2000/svg">
<path d="M20.7573 8.41398C20.2389 6.1848 18.9195 4.22383 17.0498 2.90379C15.1802 1.58375 12.8907 0.996679 10.6166 1.25416C8.34246 1.51164 6.2422 2.59573 4.71504 4.30036C3.18787 6.00499 2.34027 8.21132 2.33334 10.5C2.33163 11.9915 2.69194 13.4612 3.38334 14.7828C2.12465 15.4573 1.12747 16.5331 0.550225 17.8392C-0.0270193 19.1454 -0.151215 20.607 0.197369 21.9918C0.545954 23.3766 1.34732 24.6052 2.47416 25.4824C3.60099 26.3596 4.98865 26.8351 6.41667 26.8333H14V24.5H6.41667C5.42316 24.5029 4.46283 24.1427 3.71644 23.487C2.97005 22.8312 2.48907 21.9253 2.36404 20.9397C2.23901 19.9541 2.47855 18.9568 3.03758 18.1355C3.5966 17.3142 4.43656 16.7255 5.39934 16.4803L7.07584 16.0475L6.04567 14.6556C5.14913 13.4558 4.66532 11.9978 4.66667 10.5C4.67998 8.73363 5.36059 7.03761 6.572 5.75206C7.78341 4.4665 9.43606 3.68647 11.1985 3.56838C12.961 3.45029 14.7029 4.00289 16.075 5.11534C17.4471 6.2278 18.3478 7.81786 18.5967 9.56664L18.7133 10.451L19.5965 10.5676C21.1552 10.7719 22.5994 11.4957 23.6959 12.6222C24.7924 13.7486 25.4771 15.2118 25.6394 16.7754C25.8016 18.3389 25.432 19.9116 24.5902 21.2391C23.7483 22.5667 22.4835 23.5717 21 24.0916V26.5265C23.0234 26.0061 24.8133 24.821 26.0824 23.1614C27.3515 21.5018 28.0262 19.4639 27.9982 17.3748C27.9702 15.2858 27.2412 13.2667 25.9281 11.6417C24.615 10.0167 22.794 8.87995 20.7573 8.41398Z" fill="#575757"/>
<path d="M21.3418 20.6581L22.9915 19.0085L19.1497 15.1666C18.7121 14.7292 18.1187 14.4835 17.5 14.4835C16.8813 14.4835 16.2879 14.7292 15.8503 15.1666L12.0085 19.0085L13.6582 20.6581L16.3333 17.983V28H18.6667V17.983L21.3418 20.6581Z" fill="#575757"/>
</svg>
