<svg width="28" height="28" viewBox="0 0 28 28" fill="none" xmlns="http://www.w3.org/2000/svg">
<g clip-path="url(#clip0_2_446)">
<path d="M14 0C17.4743 0 20.7912 1.29617 23.3333 3.5665V0H25.6667V5.83333C25.6667 7.12017 24.6202 8.16667 23.3333 8.16667H17.5V5.83333H22.33C20.1518 3.6155 17.1535 2.33333 14 2.33333C7.567 2.33333 2.33333 7.567 2.33333 14C2.33333 20.433 7.567 25.6667 14 25.6667C20.433 25.6667 25.6667 20.433 25.6667 14H28C28 21.7198 21.7198 28 14 28C6.28017 28 0 21.7198 0 14C0 6.28017 6.28017 0 14 0Z" fill="#575757"/>
<g clip-path="url(#clip1_2_446)">
<path d="M-244 22C-244 163.163 -129.163 278 12 278C149.536 278 261.877 170.437 267.765 33.1147C268.021 27.2267 263.456 22.256 257.568 22C251.787 22.2347 246.709 26.3094 246.453 32.2187C241.077 158.085 138.08 256.667 12 256.667C-117.387 256.667 -222.667 151.387 -222.667 22C-222.667 -107.387 -117.387 -212.667 12 -212.667C92.0213 -212.667 164.725 -172.773 208.309 -106H108C102.112 -106 97.3333 -101.221 97.3333 -95.3333C97.3333 -89.4453 102.112 -84.6667 108 -84.6667H214.667C232.309 -84.6667 246.667 -99.024 246.667 -116.667V-223.333C246.667 -229.221 241.888 -234 236 -234C230.112 -234 225.333 -229.221 225.333 -223.333V-118.821C177.717 -190.928 98.8053 -234 12 -234C-129.163 -234 -244 -119.163 -244 22Z" fill="#575757"/>
</g>
</g>
<defs>
<clipPath id="clip0_2_446">
<rect width="28" height="28" fill="white" transform="matrix(-1 0 0 1 28 0)"/>
</clipPath>
<clipPath id="clip1_2_446">
<rect width="512" height="512" fill="white" transform="matrix(-1 0 0 1 268 -234)"/>
</clipPath>
</defs>
</svg>
