<svg width="14" height="20" viewBox="0 0 14 20" fill="none" xmlns="http://www.w3.org/2000/svg">
<path d="M11.1666 5C9.78831 5 8.66665 3.87833 8.66665 2.5C8.66665 1.12167 9.78831 0 11.1666 0C12.545 0 13.6666 1.12167 13.6666 2.5C13.6666 3.87833 12.545 5 11.1666 5ZM11.1666 20C9.78831 20 8.66665 18.8783 8.66665 17.5C8.66665 16.1217 9.78831 15 11.1666 15C12.545 15 13.6666 16.1217 13.6666 17.5C13.6666 18.8783 12.545 20 11.1666 20ZM11.1666 12.5C9.78831 12.5 8.66665 11.3783 8.66665 10C8.66665 8.62167 9.78831 7.5 11.1666 7.5C12.545 7.5 13.6666 8.62167 13.6666 10C13.6666 11.3783 12.545 12.5 11.1666 12.5ZM2.83331 5C1.45498 5 0.333313 3.87833 0.333313 2.5C0.333313 1.12167 1.45498 0 2.83331 0C4.21165 0 5.33331 1.12167 5.33331 2.5C5.33331 3.87833 4.21165 5 2.83331 5ZM2.83331 20C1.45498 20 0.333313 18.8783 0.333313 17.5C0.333313 16.1217 1.45498 15 2.83331 15C4.21165 15 5.33331 16.1217 5.33331 17.5C5.33331 18.8783 4.21165 20 2.83331 20ZM2.83331 12.5C1.45498 12.5 0.333313 11.3783 0.333313 10C0.333313 8.62167 1.45498 7.5 2.83331 7.5C4.21165 7.5 5.33331 8.62167 5.33331 10C5.33331 11.3783 4.21165 12.5 2.83331 12.5Z" fill="#575757"/>
</svg>
