<svg width="42" height="42" viewBox="0 0 42 42" fill="none" xmlns="http://www.w3.org/2000/svg">
<g clip-path="url(#clip0_47_791)">
<path d="M25.3492 40.5646C25.5314 40.2953 25.5992 39.9647 25.5377 39.6454C25.4761 39.3262 25.2903 39.0445 25.021 38.8622C23.4071 37.7676 22.2933 36.0774 21.9242 34.1625C21.555 32.2476 21.9606 30.2645 23.052 28.6483L27.0577 22.7295L28.6679 23.8192C29.0695 24.0908 29.5426 24.2373 30.0274 24.2401C30.5122 24.2429 30.987 24.1019 31.3917 23.8349C31.7964 23.5679 32.1129 23.187 32.3011 22.7401C32.4893 22.2933 32.5408 21.8007 32.4491 21.3246L30.5198 11.3167C30.3351 10.3592 29.7776 9.51424 28.97 8.96767C28.1624 8.42111 27.1707 8.21768 26.2132 8.40213L16.2052 10.3314C15.7292 10.4233 15.291 10.6542 14.9462 10.995C14.6014 11.3358 14.3653 11.7713 14.2679 12.2462C14.1705 12.7212 14.2161 13.2143 14.3989 13.6634C14.5818 14.1124 14.8936 14.4972 15.2951 14.769L16.9053 15.8587L13.5867 20.7623C11.9499 23.1866 11.3417 26.1612 11.8954 29.0335C12.4491 31.9057 14.1195 34.4411 16.5402 36.0832L23.6469 40.8927C23.9161 41.075 24.2468 41.1428 24.566 41.0812C24.8853 41.0197 25.167 40.8338 25.3492 40.5646ZM16.6692 12.7385L26.6772 10.8092C26.9964 10.7477 27.3269 10.8155 27.5961 10.9977C27.8653 11.1799 28.0512 11.4616 28.1127 11.7807L30.042 21.7887L27.4166 20.0119C27.1473 19.8297 26.8167 19.7619 26.4975 19.8234C26.1782 19.885 25.8965 20.0708 25.7143 20.3401L21.0216 27.2742C20.241 28.4268 19.7153 29.7328 19.4795 31.1048C19.2438 32.4768 19.3034 33.8833 19.6545 35.2304L17.9143 34.0527C16.0316 32.7754 14.7325 30.8035 14.3018 28.5696C13.8712 26.3356 14.3442 24.0221 15.6172 22.1365L19.6228 16.2176C19.8051 15.9483 19.8729 15.6177 19.8113 15.2985C19.7498 14.9792 19.5639 14.6975 19.2947 14.5153L16.6692 12.7385Z" fill="#575757"/>
</g>
<defs>
<clipPath id="clip0_47_791">
<rect width="29.4212" height="29.4212" fill="white" transform="matrix(-0.560474 0.828172 0.828172 0.560474 16.7861 0.724121)"/>
</clipPath>
</defs>
</svg>
