<svg width="28" height="28" viewBox="0 0 28 28" fill="none" xmlns="http://www.w3.org/2000/svg">
<path d="M24.5 14H21C19.7132 14 18.6667 15.0465 18.6667 16.3333C18.6667 17.6202 17.6202 18.6667 16.3333 18.6667H11.6667C10.3798 18.6667 9.33333 17.6202 9.33333 16.3333C9.33333 15.0465 8.28683 14 7 14H3.5C1.57033 14 0 15.5703 0 17.5V22.1667C0 25.3832 2.61683 28 5.83333 28H22.1667C25.3832 28 28 25.3832 28 22.1667V17.5C28 15.5703 26.4297 14 24.5 14ZM25.6667 22.1667C25.6667 24.0963 24.0963 25.6667 22.1667 25.6667H5.83333C3.90367 25.6667 2.33333 24.0963 2.33333 22.1667V17.5C2.33333 16.856 2.856 16.3333 3.5 16.3333L7 16.331V16.3333C7 18.907 9.093 21 11.6667 21H16.3333C18.907 21 21 18.907 21 16.3333H24.5C25.144 16.3333 25.6667 16.856 25.6667 17.5V22.1667ZM8.5085 8.30783C8.05233 7.85167 8.05233 7.11433 8.5085 6.65817C8.96467 6.202 9.702 6.202 10.1582 6.65817L12.8333 9.33333V1.16667C12.8333 0.5215 13.3548 0 14 0C14.6452 0 15.1667 0.5215 15.1667 1.16667V9.33333L17.8418 6.65817C18.298 6.202 19.0353 6.202 19.4915 6.65817C19.9477 7.11433 19.9477 7.85167 19.4915 8.30783L15.6497 12.1497C15.1982 12.6012 14.6043 12.8287 14.0105 12.831L14 12.8333L13.9895 12.831C13.3957 12.8287 12.8018 12.6012 12.3503 12.1497L8.5085 8.30783Z" fill="#575757"/>
</svg>
