<svg width="61" height="61" viewBox="0 0 61 61" fill="none" xmlns="http://www.w3.org/2000/svg">
<g clip-path="url(#clip0_43_6)">
<path d="M41.4241 21.0653L44.9926 24.6872L30.2687 39.1925C29.2851 40.1761 27.9914 40.6667 26.6926 40.6667C25.3938 40.6667 24.0874 40.171 23.0936 39.1798L16.0227 32.3275L19.5632 28.6751L26.6621 35.5554L41.4241 21.0653ZM61 30.5C61 47.3182 47.3182 61 30.5 61C13.6818 61 0 47.3182 0 30.5C0 13.6818 13.6818 0 30.5 0C47.3182 0 61 13.6818 61 30.5ZM55.9167 30.5C55.9167 16.4853 44.5148 5.08333 30.5 5.08333C16.4853 5.08333 5.08333 16.4853 5.08333 30.5C5.08333 44.5148 16.4853 55.9167 30.5 55.9167C44.5148 55.9167 55.9167 44.5148 55.9167 30.5Z" fill="#575757"/>
</g>
<defs>
<clipPath id="clip0_43_6">
<rect width="61" height="61" fill="white"/>
</clipPath>
</defs>
</svg>
