<svg width="28" height="28" viewBox="0 0 28 28" fill="none" xmlns="http://www.w3.org/2000/svg">
<g clip-path="url(#clip0_2_440)">
<path d="M14 0C10.5257 0 7.20883 1.29617 4.66667 3.5665V0H2.33333V5.83333C2.33333 7.12017 3.37983 8.16667 4.66667 8.16667H10.5V5.83333H5.67C7.84817 3.6155 10.8465 2.33333 14 2.33333C20.433 2.33333 25.6667 7.567 25.6667 14C25.6667 20.433 20.433 25.6667 14 25.6667C7.567 25.6667 2.33333 20.433 2.33333 14H0C0 21.7198 6.28017 28 14 28C21.7198 28 28 21.7198 28 14C28 6.28017 21.7198 0 14 0Z" fill="#575757"/>
<g clip-path="url(#clip1_2_440)">
<path d="M272 22C272 163.163 157.163 278 16 278C-121.536 278 -233.877 170.437 -239.765 33.1147C-240.021 27.2267 -235.456 22.256 -229.568 22C-223.787 22.2347 -218.709 26.3094 -218.453 32.2187C-213.077 158.085 -110.08 256.667 16 256.667C145.387 256.667 250.667 151.387 250.667 22C250.667 -107.387 145.387 -212.667 16 -212.667C-64.0213 -212.667 -136.725 -172.773 -180.309 -106H-80C-74.112 -106 -69.3333 -101.221 -69.3333 -95.3333C-69.3333 -89.4453 -74.112 -84.6667 -80 -84.6667H-186.667C-204.309 -84.6667 -218.667 -99.024 -218.667 -116.667V-223.333C-218.667 -229.221 -213.888 -234 -208 -234C-202.112 -234 -197.333 -229.221 -197.333 -223.333V-118.821C-149.717 -190.928 -70.8053 -234 16 -234C157.163 -234 272 -119.163 272 22Z" fill="#575757"/>
</g>
</g>
<defs>
<clipPath id="clip0_2_440">
<rect width="28" height="28" fill="white"/>
</clipPath>
<clipPath id="clip1_2_440">
<rect width="512" height="512" fill="white" transform="translate(-240 -234)"/>
</clipPath>
</defs>
</svg>
