<svg width="27" height="28" viewBox="0 0 27 28" fill="none" xmlns="http://www.w3.org/2000/svg">
<g clip-path="url(#clip0_47_789)">
<path d="M18.9286 5.25018C18.9286 3.63901 20.1647 2.33351 21.6902 2.33351C23.2158 2.33351 24.4519 3.63901 24.4519 5.25018C24.4519 6.86134 23.2158 8.16684 21.6902 8.16684C20.1647 8.16684 18.9286 6.86134 18.9286 5.25018ZM11.196 9.33351C11.196 8.04434 10.2074 7.00018 8.98674 7.00018C7.76611 7.00018 6.77744 8.04434 6.77744 9.33351C6.77744 10.6227 7.76611 11.6668 8.98674 11.6668C10.2074 11.6668 11.196 10.6227 11.196 9.33351ZM15.0623 14.0002C15.0623 13.0342 14.32 12.2502 13.4053 12.2502C12.4907 12.2502 11.7484 13.0342 11.7484 14.0002C11.7484 14.9662 12.4907 15.7502 13.4053 15.7502C14.32 15.7502 15.0623 14.9662 15.0623 14.0002ZM26.1619 10.1828C25.9962 9.56218 25.3809 9.20051 24.7987 9.37901C24.2122 9.55401 23.8708 10.198 24.0376 10.8187C24.3127 11.8488 24.453 12.9198 24.453 14.0013C24.453 20.4343 19.4975 25.668 13.4065 25.668C7.31541 25.668 2.35884 20.4332 2.35884 14.0002C2.35884 7.56718 7.3143 2.33351 13.4053 2.33351C14.4294 2.33351 15.4434 2.48168 16.4188 2.77218C17.0043 2.94834 17.6163 2.58901 17.782 1.96834C17.9477 1.34768 17.6074 0.703676 17.0209 0.528676C15.8488 0.178676 14.6337 0.00134294 13.4065 0.00134294C6.09587 0.000176269 0.149536 6.28034 0.149536 14.0002C0.149536 21.72 6.09587 28.0002 13.4053 28.0002C20.7148 28.0002 26.6612 21.72 26.6612 14.0002C26.6612 12.704 26.4933 11.4195 26.1619 10.1828ZM12.3007 7.00018C12.3007 7.64534 12.7945 8.16684 13.4053 8.16684C16.4509 8.16684 18.9286 10.7837 18.9286 14.0002C18.9286 17.2167 16.4509 19.8335 13.4053 19.8335C10.3598 19.8335 7.88209 17.2167 7.88209 14.0002C7.88209 13.355 7.38831 12.8335 6.77744 12.8335C6.16657 12.8335 5.67279 13.355 5.67279 14.0002C5.67279 18.5023 9.1425 22.1668 13.4053 22.1668C17.6682 22.1668 21.1379 18.5023 21.1379 14.0002C21.1379 9.49801 17.6682 5.83351 13.4053 5.83351C12.7945 5.83351 12.3007 6.35501 12.3007 7.00018Z" fill="#575757"/>
</g>
<defs>
<clipPath id="clip0_47_789">
<rect width="26.5116" height="28" fill="white" transform="translate(0.149536)"/>
</clipPath>
</defs>
</svg>
